<svg xmlns="http://www.w3.org/2000/svg" viewBox="0 0 492 102" enable-background="new 0 0 492 102"><path d="M59.5 60.9l26.1 36.2H54.9l-10.5-17-11 17H3.6l27-34.8L3.9 25.9h31l10.5 16.9 11.1-16.9h29.9l-26.9 35zm91-11.1c-8.2-5.5-15-7.9-21.7-7.9-5.2 0-7 2.1-7 4.9 0 4 10.7 5.6 19.9 9.2 9.3 3.5 14.7 9.5 14.7 21.1 0 13.6-14.3 22.7-33 22.7-17.6 0-24-3.8-33.9-7.9l6.9-19.1c7.9 5.3 16 8.5 23.8 8.5 5 0 6.6-1.8 6.6-4.4 0-4.3-11.6-6.7-20.5-10.2C97.3 63 92 57.4 92 46.6c0-13.9 14.8-23.4 33.4-23.4 11.9 0 22 2.7 32.1 7.2l-7 19.4zm52.3 49.9c-21.2 0-40.3-13.1-40.3-38.2 0-24.6 19.1-38.2 40.3-38.2 21.2 0 40.3 13.6 40.3 38.2 0 25.8-19.1 38.2-40.3 38.2zm0-55.7c-5.5 0-9.2 6.4-9.2 17.6 0 11.3 3.7 17.6 9.2 17.6 5.7 0 9.2-6.3 9.2-17.6 0-11.2-3.4-17.6-9.2-17.6zm50.9 53.1V2h30.5v95h-30.5zm92.2 0h-29.8L291.4 26h29.9l12.4 37.4L345.6 26h28.9l-28.6 71.1zm69.6 2.6c-28.7 0-38.9-19.4-38.9-39.2 0-22.6 17.6-37.1 40.1-37.1 22.9 0 33.4 13.9 34 33.4l.3 10.5h-43.8c0 6.1 5.8 11.1 13.6 11.1 8.6 0 13.4-1.2 22.6-5.5l7.8 19.4c-14.5 4.8-15.6 7.4-35.7 7.4zm.7-57.9c-5.3 0-8.7 5.6-8.7 11.6h15.3c0-6.7-1.8-11.6-6.6-11.6zm47.7 33.9h24.7v21h-24.7z" fill="#333"/></svg>